# xmcd
#
# Track frame offsets:
#	150
#	28735
#	53151
#	77043
#	100866
#	126765
#
# Disc length: 1993 seconds
#
# Revision: 0
# Processed by: cddbd v1.5.1PL2 Copyright (c) Steve Scherf et al.
# Submitted via: EasyCDDAExtractor 9.0.0.1
#
DISCID=4507c706
DTITLE=Q-BASS and MP PROJECT - DON'T STOP
DYEAR=1900
DGENRE=
TTITLE0=DON'T STOP(TRANCE MIX)
TTITLE1=DON'T STOP(BENNY B STYLE)
TTITLE2=DON'T STOP(SOUND INVADERS REMIX)
TTITLE3=DON'T STOP(K CHOCH£OW REMIX)
TTITLE4=DON'T STOP(DEEJAY Q VS. DJ MONEE HOUSE EDIT)
TTITLE5=DON'T STOP(BOOT MIX)
EXTD=
EXTT0=
EXTT1=
EXTT2=
EXTT3=
EXTT4=
EXTT5=
PLAYORDER=
